<mxfile host="65bd71144e">
    <diagram id="ge2c0S1jZT1BVSETt_aw" name="Page-1">
        <mxGraphModel dx="774" dy="553" grid="1" gridSize="10" guides="1" tooltips="1" connect="1" arrows="1" fold="1" page="1" pageScale="1" pageWidth="1100" pageHeight="850" math="0" shadow="0">
            <root>
                <mxCell id="0"/>
                <mxCell id="1" parent="0"/>
                <mxCell id="5" style="edgeStyle=none;html=1;entryX=0.564;entryY=0.028;entryDx=0;entryDy=0;entryPerimeter=0;strokeColor=#F0F0F0;targetPerimeterSpacing=2;strokeWidth=3;" parent="1" source="2" target="4" edge="1">
                    <mxGeometry relative="1" as="geometry">
                        <Array as="points">
                            <mxPoint x="288" y="120"/>
                        </Array>
                    </mxGeometry>
                </mxCell>
                <mxCell id="2" value="Camara" style="rounded=0;whiteSpace=wrap;html=1;strokeColor=#F0F0F0;" parent="1" vertex="1">
                    <mxGeometry x="70" y="90" width="120" height="60" as="geometry"/>
                </mxCell>
                <mxCell id="3" value="Fuente" style="rounded=1;whiteSpace=wrap;html=1;strokeColor=#F0F0F0;" parent="1" vertex="1">
                    <mxGeometry x="70" y="310" width="120" height="60" as="geometry"/>
                </mxCell>
                <mxCell id="6" style="edgeStyle=none;html=1;exitX=0;exitY=0.5;exitDx=0;exitDy=0;entryX=0.5;entryY=0;entryDx=0;entryDy=0;strokeColor=#F0F0F0;targetPerimeterSpacing=2;rounded=1;strokeWidth=3;" parent="1" source="4" target="3" edge="1">
                    <mxGeometry relative="1" as="geometry">
                        <Array as="points">
                            <mxPoint x="130" y="230"/>
                        </Array>
                    </mxGeometry>
                </mxCell>
                <mxCell id="4" value="Rpi" style="rounded=1;whiteSpace=wrap;html=1;strokeColor=#F0F0F0;" parent="1" vertex="1">
                    <mxGeometry x="220" y="200" width="120" height="60" as="geometry"/>
                </mxCell>
                <mxCell id="7" value="Flask server" style="ellipse;shape=cloud;whiteSpace=wrap;html=1;strokeColor=#F0F0F0;" parent="1" vertex="1">
                    <mxGeometry x="440" y="40" width="120" height="80" as="geometry"/>
                </mxCell>
                <mxCell id="8" value="" style="shape=flexArrow;endArrow=classic;html=1;exitX=0.992;exitY=0.628;exitDx=0;exitDy=0;exitPerimeter=0;entryX=0.092;entryY=0.629;entryDx=0;entryDy=0;entryPerimeter=0;strokeColor=#F0F0F0;targetPerimeterSpacing=2;strokeWidth=3;" parent="1" source="4" target="7" edge="1">
                    <mxGeometry width="50" height="50" relative="1" as="geometry">
                        <mxPoint x="510" y="230" as="sourcePoint"/>
                        <mxPoint x="560" y="180" as="targetPoint"/>
                        <Array as="points">
                            <mxPoint x="380" y="238"/>
                            <mxPoint x="380" y="90"/>
                        </Array>
                    </mxGeometry>
                </mxCell>
                <mxCell id="9" value="&lt;font style=&quot;font-size: 13px;&quot;&gt;set /cam&lt;/font&gt;" style="text;html=1;strokeColor=#F0F0F0;fillColor=default;align=center;verticalAlign=middle;whiteSpace=wrap;rounded=1;" parent="1" vertex="1">
                    <mxGeometry x="370" y="50" width="60" height="30" as="geometry"/>
                </mxCell>
                <mxCell id="12" value="Portatil" style="rounded=1;whiteSpace=wrap;html=1;strokeColor=#F0F0F0;" parent="1" vertex="1">
                    <mxGeometry x="640" y="200" width="120" height="60" as="geometry"/>
                </mxCell>
                <mxCell id="13" value="" style="shape=flexArrow;endArrow=classic;html=1;entryX=0.5;entryY=0;entryDx=0;entryDy=0;exitX=0.953;exitY=0.546;exitDx=0;exitDy=0;exitPerimeter=0;strokeColor=#F0F0F0;targetPerimeterSpacing=2;strokeWidth=3;" parent="1" source="7" target="12" edge="1">
                    <mxGeometry width="50" height="50" relative="1" as="geometry">
                        <mxPoint x="510" y="230" as="sourcePoint"/>
                        <mxPoint x="560" y="180" as="targetPoint"/>
                        <Array as="points">
                            <mxPoint x="700" y="84"/>
                        </Array>
                    </mxGeometry>
                </mxCell>
                <mxCell id="14" value="&lt;font style=&quot;font-size: 13px;&quot;&gt;get /cam&lt;/font&gt;" style="text;html=1;strokeColor=#F0F0F0;fillColor=default;align=center;verticalAlign=middle;whiteSpace=wrap;rounded=1;" parent="1" vertex="1">
                    <mxGeometry x="630" y="45" width="60" height="30" as="geometry"/>
                </mxCell>
                <mxCell id="15" value="" style="shape=flexArrow;endArrow=classic;html=1;exitX=-0.031;exitY=0.628;exitDx=0;exitDy=0;exitPerimeter=0;entryX=0.8;entryY=0.8;entryDx=0;entryDy=0;entryPerimeter=0;strokeColor=#F0F0F0;strokeWidth=2;" parent="1" source="12" target="7" edge="1">
                    <mxGeometry width="50" height="50" relative="1" as="geometry">
                        <mxPoint x="510" y="230" as="sourcePoint"/>
                        <mxPoint x="560" y="180" as="targetPoint"/>
                        <Array as="points">
                            <mxPoint x="536" y="238"/>
                        </Array>
                    </mxGeometry>
                </mxCell>
                <mxCell id="16" value="&lt;font style=&quot;font-size: 13px;&quot;&gt;Set /detection&lt;/font&gt;" style="text;html=1;strokeColor=#F0F0F0;fillColor=default;align=center;verticalAlign=middle;whiteSpace=wrap;rounded=1;" parent="1" vertex="1">
                    <mxGeometry x="550" y="250" width="60" height="30" as="geometry"/>
                </mxCell>
                <mxCell id="17" value="" style="shape=flexArrow;endArrow=classic;html=1;exitX=0.31;exitY=0.8;exitDx=0;exitDy=0;exitPerimeter=0;entryX=0.5;entryY=1;entryDx=0;entryDy=0;strokeColor=#F0F0F0;targetPerimeterSpacing=2;strokeWidth=3;" parent="1" source="7" target="4" edge="1">
                    <mxGeometry width="50" height="50" relative="1" as="geometry">
                        <mxPoint x="420" y="320" as="sourcePoint"/>
                        <mxPoint x="470" y="270" as="targetPoint"/>
                        <Array as="points">
                            <mxPoint x="477" y="320"/>
                            <mxPoint x="280" y="320"/>
                        </Array>
                    </mxGeometry>
                </mxCell>
                <mxCell id="18" value="&lt;font style=&quot;font-size: 13px;&quot;&gt;get/&lt;br&gt;detection&lt;/font&gt;" style="text;html=1;strokeColor=#F0F0F0;fillColor=default;align=center;verticalAlign=middle;whiteSpace=wrap;rounded=1;" parent="1" vertex="1">
                    <mxGeometry x="360" y="325" width="60" height="30" as="geometry"/>
                </mxCell>
            </root>
        </mxGraphModel>
    </diagram>
</mxfile>